<svg width="717" height="587" viewBox="0 0 717 587" fill="none" xmlns="http://www.w3.org/2000/svg">
<g opacity="0.98">
<path d="M390.5 110L330 217H455L390.5 110Z" fill="#5AA4ED"/>
<path d="M454.5 217L515 110H390L454.5 217Z" fill="#3D8CE0"/>
<path d="M514.5 110L454 217H579L514.5 110Z" fill="#044AD6"/>
<path d="M578.5 217L639 110H514L578.5 217Z" fill="#277BE3"/>
<path d="M518.5 324L579 217H454L518.5 324Z" fill="#032A80"/>
<path d="M454.5 217L394 324H519L454.5 217Z" fill="#031D59"/>
<path d="M458.5 431L519 324H394L458.5 431Z" fill="#02184A"/>
<path d="M394.5 324L334 431H459L394.5 324Z" fill="#3C8CE8"/>
<path d="M398.5 538L459 431H334L398.5 538Z" fill="#59A2EB"/>
<path d="M334.5 431L395 324H270L334.5 431Z" fill="#277BE3"/>
<path opacity="0.98" d="M265.5 110L205 217H330L265.5 110Z" fill="#031D59"/>
<path d="M330.5 217L270 324H395L330.5 217Z" fill="#0446D4"/>
<path d="M270.5 324L331 217H206L270.5 324Z" fill="#02297D"/>
<path d="M205.5 217L266 110H141L205.5 217Z" fill="#02174D"/>
</g>
</svg>
