<svg xmlns="http://www.w3.org/2000/svg" xmlns:xlink="http://www.w3.org/1999/xlink" viewBox="0 0 231 116"><defs><path d="M0 0h20.3908176v12.6416274H0z"/><path d="M0 0h30.9534931v11.7796498H0z"/></defs><g fill="none" fill-rule="evenodd"><path fill="#005EB8" d="M0 36.902884h91.8134472V0H0z"/><path fill="#FFFFFE" d="M8.92608364 3.54712331H18.96578l6.1350717 20.61172009h.1116834l4.1279915-20.61172009h7.5848086L30.5679705 33.2469467h-9.9290868l-6.247829-20.5018393h-.1106095l-4.1279915 20.5018393H2.56657121L8.92608364 3.54712331M39.8269567 3.54712331h8.0326162L45.5152946 14.9619261h9.483427l2.3432043-11.41480279h8.0315423l-6.247829 29.69982339h-8.0315423l2.6771808-12.6341598h-9.4823531l-2.6771807 12.6341598h-7.9209328l6.1361456-29.69982339M86.4590857 10.3074603c-1.5635681-.66568573-3.6812578-1.33030462-6.5818055-1.33030462-3.2366718 0-5.8021691.44272366-5.8021691 2.88143762 0 4.2106754 11.6011167 2.5485948 11.6011167 11.636698 0 8.2005224-7.696492 10.3053267-14.6133478 10.3053267-3.012231 0-6.5818054-.6646189-9.2589861-1.551133l1.8964706-5.9847705c1.5614203.996395 4.7959443 1.6631475 7.3625155 1.6631475 2.4538139 0 6.3595125-.4437905 6.3595125-3.5460565 0-4.7654135-11.6021906-2.9923853-11.6021906-11.304922 0-7.64578432 6.8040985-9.97355066 13.3859039-9.97355066 3.6812578 0 7.1402226.33177605 9.1483766 1.33030459l-1.8953967 5.87382287"/><path fill="#231F20" d="M5.53155159 51.7783991H.21262808v-2.9070409H14.5736142v2.9070409H9.25469067v15.533733H5.53155159v-15.533733M16.6182801 47.4973146h3.5631311v8.0586374h.053694c.9031323-1.3207033 2.4462967-2.1656121 4.3073293-2.1656121 3.2452628 0 4.6541923 2.2722925 4.6541923 5.3361536v8.5856386h-3.5631311v-7.2649352c0-1.6642143-.0268469-3.9098367-2.3142096-3.9098367-2.5805316 0-3.1378749 2.7736904-3.1378749 4.5168482v6.6579237h-3.5631311V47.4973146M41.4528098 59.175618c-.1063141-1.7175544-.9031324-3.1972116-2.8983999-3.1972116-1.9941936 0-3.0057878 1.3740436-3.1647219 3.1972116h6.0631218Zm2.3936766 7.3716157c-1.3026154.712625-2.7931597 1.0817392-4.7068124 1.0817392-4.5210313 0-7.154183-2.5880665-7.154183-7.053708 0-3.93544 2.1005077-7.184925 6.3562908-7.184925 5.0794485 0 6.5152249 3.4607122 6.5152249 8.2154576H35.389688c.1589341 2.1922823 1.7020985 3.4351089 3.909994 3.4351089 1.7278716 0 3.217342-.6347484 4.5468044-1.3740435v2.8803708ZM55.3573972 48.8713582h3.7231391V64.406158h7.2068031v2.9059741H55.3573972V48.8713582M76.9230387 59.175618c-.107388-1.7175544-.9042063-3.1972116-2.8983999-3.1972116-1.9952675 0-3.0057878 1.3740436-3.1657958 3.1972116h6.0641957Zm2.3926027 7.3716157c-1.3026154.712625-2.7920858 1.0817392-4.7068123 1.0817392-4.5199575 0-7.1541831-2.5880665-7.1541831-7.053708 0-3.93544 2.1005077-7.184925 6.3562908-7.184925 5.0794485 0 6.5162988 3.4607122 6.5162988 8.2154576H70.858843c.160008 2.1922823 1.7020985 3.4351089 3.909994 3.4351089 1.7278716 0 3.217342-.6347484 4.5468044-1.3740435v2.8803708ZM91.7049854 59.175618c-.106314-1.7175544-.9031324-3.1972116-2.8983999-3.1972116-1.9941936 0-3.0057878 1.3740436-3.1647219 3.1972116h6.0631218Zm2.3936767 7.3716157c-1.3026155.712625-2.7931597 1.0817392-4.7068124 1.0817392-4.5210313 0-7.154183-2.5880665-7.154183-7.053708 0-3.93544 2.1005076-7.184925 6.3562908-7.184925 5.0783745 0 6.5152249 3.4607122 6.5152249 8.2154576h-9.4673188c.1589341 2.1922823 1.7020985 3.4351089 3.9099941 3.4351089 1.7278716 0 3.217342-.6347484 4.5468044-1.3740435v2.8803708ZM103.749614 64.8819526c2.36683 0 3.137875-2.4835197 3.137875-4.4123013 0-1.9021116-.904206-4.3322911-3.191569-4.3322911-2.313136 0-2.952094 2.509123-2.952094 4.3322911 0 1.8754414.665805 4.4123013 3.005788 4.4123013Zm3.271036.898249h-.053694c-1.06314 1.3207033-2.525764 1.8487713-4.201015 1.8487713-4.2020894 0-5.7452537-3.4329753-5.7452537-7.1593216 0-3.7508829 1.5431643-7.0793114 5.7452537-7.0793114 1.781565 0 3.031561.6070115 4.095775 1.9010447h.05262v-7.79407h3.564205v19.8148175h-3.457891v-1.5319305ZM122.281547 56.5598146c-1.091061-.3691142-1.888954-.5814082-3.191569-.5814082-.956826 0-2.101581.3445777-2.101581 1.5063273 0 2.1666789 6.197356.7926353 6.197356 5.7063346 0 3.1705415-2.84578 4.4379046-5.745253 4.4379046-1.35631 0-2.739466-.2368305-4.041008-.5814082l.212628-2.9049073c1.116835.5536713 2.287363.898249 3.509438.898249.904206 0 2.341056-.3445777 2.341056-1.665281 0-2.6680768-6.197357-.8449088-6.197357-5.758608 0-2.9326442 2.580532-4.2266775 5.372618-4.2266775 1.675251 0 2.766313.2635006 3.883147.5003311l-.239475 2.6691436M5.53155159 78.4484991H.21262808v-2.9070409H14.5736142v2.9070409H9.25469067v15.5337331H5.53155159V78.4484991M22.2561458 85.8446513c-.1063141-1.7164877-.9031324-3.1961448-2.8983999-3.1961448-1.9941936 0-3.0057878 1.3740435-3.1647219 3.1961448h6.0631218Zm2.3936766 7.3726824c-1.3026154.7126251-2.7931597 1.0817393-4.7068124 1.0817393-4.5210313 0-7.154183-2.5880665-7.154183-7.0537081 0-3.9354399 2.1005077-7.1849249 6.3562908-7.1849249 5.0794485 0 6.5152249 3.4607121 6.5152249 8.2154576H16.193024c.1589341 2.1922822 1.7020985 3.4351089 3.909994 3.4351089 1.7278716 0 3.217342-.6347484 4.5468044-1.3740436v2.8803708ZM33.2365602 91.7110065c1.0910613 0 1.9426475-.4757946 2.4999907-1.2150898.5852642-.7670321.7452722-1.7442245.7452722-2.8014273h-1.5431644c-1.5947105 0-3.9615402.2645674-3.9615402 2.351236 0 1.1628164.9836733 1.6652811 2.2594417 1.6652811ZM29.061318 81.0899058c1.3831564-.6336816 3.2452629-1.0294658 4.7605064-1.0294658 4.1763161 0 5.9041876 1.7164876 5.9041876 5.7330047v1.7431577c0 1.3740436.026847 2.4035094.053694 3.4084388.0257731 1.0305327.0794671 1.981055.1589341 3.037191h-3.1378749c-.133161-.7136919-.133161-1.610874-.160008-2.0343952h-.0526201c-.8236653 1.5063272-2.6063047 2.351236-4.2278623 2.351236-2.4205236 0-4.7873533-1.4519203-4.7873533-4.0421204 0-2.0333284.9836733-3.2228149 2.3399827-3.8820997 1.3563094-.6603517 3.1121018-.7937022 4.6015722-.7937022h1.9673467c0-2.1922822-.9836733-2.9326442-3.084181-2.9326442-1.5173912 0-3.0326348.5814082-4.2289361 1.4796571l-.107388-3.0382578ZM52.115356 83.309925c-.6389581-.2912375-1.3294624-.5024647-2.4205236-.5024647-2.2068217 0-3.6168251 1.7442245-3.6168251 4.3066877 0 2.509123 1.1963014 4.4379047 3.6962921 4.4379047 1.0115942 0 2.1284285-.370181 2.7394658-.6347484l.160008 2.9326442c-1.0373673.3179076-2.1005077.4491245-3.564205.4491245-4.4941843 0-6.7546999-3.037191-6.7546999-7.184925 0-3.9365067 2.3410565-7.053708 6.6215389-7.053708 1.4368503 0 2.4742176.157887 3.4578909.4491244l-.3189421 2.8003606M55.0384551 74.1674147h3.5631311v8.0586374h.0536939c.9042063-1.3207034 2.4462968-2.1656121 4.3084033-2.1656121 3.2441889 0 4.6541923 2.2712257 4.6541923 5.3361536v8.5856386h-3.564205v-7.2649353c0-1.6642142-.026847-3.9098366-2.3142096-3.9098366-2.5794578 0-3.1378749 2.7736904-3.1378749 4.5168481v6.6579238h-3.5631311V74.1674147M71.3635662 93.983299h3.5631311V80.3772808h-3.5631311V93.983299Zm0-16.0906048h3.5631311v-3.3817687h-3.5631311v3.3817687ZM78.6756095 80.3772808h3.3762761v1.8487713h.0536939c1.1168344-1.5586007 2.6331517-2.1656121 4.4941843-2.1656121 3.2452629 0 4.6541924 2.2712257 4.6541924 5.3361536v8.5856386h-3.5631311v-7.2649353c0-1.6642142-.026847-3.9098366-2.3142096-3.9098366-2.5794578 0-3.137875 2.7736904-3.137875 4.5168481v6.6579238h-3.563131V80.3772808M103.936469 87.0341377c0-2.3245659-.90528-4.2266774-2.978941-4.2266774-2.4194495 0-3.1915686 2.2189523-3.1915686 4.3066877 0 1.8487714.9847472 4.1210639 3.0315606 4.1210639 2.233669 0 3.138949-1.9287816 3.138949-4.2010742Zm3.563131-6.6568569v12.284248c0 3.6986095-1.488396 7.1859918-7.23365 7.1859918-1.4100032 0-3.0315608-.2112272-4.7336592-.9249191l.2920951-3.0115877c1.0910612.5814082 2.8726268 1.1884197 3.9894611 1.1884197 3.935767 0 4.122622-2.9315774 4.122622-5.2828134h-.053694c-.664731 1.1617495-2.260515 2.1656121-4.255783 2.1656121-4.0410073 0-5.5841716-3.2228149-5.5841716-6.8680842 0-3.2761551 1.7020984-7.053708 5.7978736-7.053708 1.808412 0 3.218416.6070114 4.202089 2.1656121h.05262v-1.8487713h3.404197ZM118.876276 75.5414582h3.723139v7.451626h7.446278v-7.451626h3.723139v18.440774h-3.723139v-8.0842407h-7.446278v8.0842407h-3.723139v-18.440774M144.029748 91.5520527c2.739466 0 3.456817-2.4301795 3.456817-4.7024721 0-2.0866686-1.116834-4.0421203-3.456817-4.0421203-2.31421 0-3.431044 2.0077251-3.431044 4.0421203 0 2.2456225.718425 4.7024721 3.431044 4.7024721Zm0-11.4916127c4.068928 0 7.179956 2.7203502 7.179956 7.211595 0 3.9098367-2.633152 7.027038-7.179956 7.027038-4.521031 0-7.154183-3.1172013-7.154183-7.027038 0-4.4912448 3.111028-7.211595 7.154183-7.211595ZM162.136424 83.2299147c-1.089987-.3691142-1.887879-.5814082-3.190495-.5814082-.9579 0-2.101581.3445777-2.101581 1.5063272 0 2.166679 6.196283.7926354 6.196283 5.7063346 0 3.1705415-2.844706 4.4379047-5.745254 4.4379047-1.355235 0-2.738392-.2368305-4.041007-.5814082l.212628-2.9049073c1.116834.5536713 2.287363.898249 3.510511.898249.903132 0 2.339983-.3445777 2.339983-1.6652811 0-2.6680768-6.196283-.8449087-6.196283-5.758608 0-2.9326442 2.579458-4.2266774 5.372617-4.2266774 1.674178 0 2.765239.2635006 3.882074.500331l-.239476 2.6691437M169.3937 87.1397513c0 1.9287817.772119 4.4123014 3.138949 4.4123014 2.339982 0 3.004714-2.5368599 3.004714-4.4123014 0-1.823168-.637885-4.332291-2.952094-4.332291-2.286289 0-3.191569 2.4301795-3.191569 4.332291Zm-3.589978-6.7624705h3.404197v1.9277148h.053694c.796818-1.3207034 2.154201-2.2445556 4.254709-2.2445556 4.202089 0 5.745254 3.3284285 5.745254 7.0793113 0 3.7263464-1.543165 7.1593217-5.824721 7.1593217-1.516317 0-2.765239-.3691142-4.016308-1.8754415h-.05262v7.1070483h-3.564205v-19.153399ZM182.128833 93.983299h3.563131V80.3772808h-3.563131V93.983299Zm0-16.0906048h3.563131v-3.3817687h-3.563131v3.3817687ZM190.611405 82.9653473h-2.633152v-2.5880665h2.633152v-2.7214171l3.563131-1.137213v3.8586301h3.165795v2.5880665h-3.165795v6.341083c0 1.1617495.318942 2.2456224 1.675251 2.2456224.638958 0 1.249995-.1322837 1.622632-.370181l.106314 2.8003605c-.744199.212294-1.568938.3168408-2.633152.3168408-2.79316 0-4.334176-1.7164877-4.334176-4.4112346v-6.9224911M204.569686 91.7110065c1.091061 0 1.942647-.4757946 2.499991-1.2150898.585264-.7670321.744198-1.7442245.744198-2.8014273h-1.542091c-1.59471 0-3.962614.2645674-3.962614 2.351236 0 1.1628164.983674 1.6652811 2.260516 1.6652811Zm-4.175242-10.6211007c1.383156-.6336816 3.245263-1.0294658 4.760506-1.0294658 4.176316 0 5.904188 1.7164876 5.904188 5.7330047v1.7431577c0 1.3740436.026847 2.4035094.053694 3.4084388.025773 1.0305327.079467 1.981055.158934 3.037191h-3.137875c-.133161-.7136919-.133161-1.610874-.160008-2.0343952h-.05262c-.824739 1.5063272-2.606305 2.351236-4.227862 2.351236-2.420524 0-4.787354-1.4519203-4.787354-4.0421204 0-2.0333284.983674-3.2228149 2.339983-3.8820997 1.356309-.6603517 3.112102-.7937022 4.600498-.7937022h1.967347c0-2.1922822-.983673-2.9326442-3.084181-2.9326442-1.516317 0-3.031561.5814082-4.228936 1.4796571l-.106314-3.0382578ZM214.645894 93.9822322h3.563131V74.1674147h-3.563131zM230.095794 83.2299147c-1.089988-.3691142-1.88788-.5814082-3.190495-.5814082-.9579 0-2.101582.3445777-2.101582 1.5063272 0 2.166679 6.196283.7926354 6.196283 5.7063346 0 3.1705415-2.844706 4.4379047-5.74418 4.4379047-1.356309 0-2.739465-.2368305-4.042081-.5814082l.212628-2.9049073c1.116835.5536713 2.287363.898249 3.510511.898249.904206 0 2.339983-.3445777 2.339983-1.6652811 0-2.6680768-6.196283-.8449087-6.196283-5.758608 0-2.9326442 2.579458-4.2266774 5.372618-4.2266774 1.674177 0 2.765238.2635006 3.882073.500331l-.239475 2.6691437"/><path fill="#005EB8" d="M1.31120646 103.5696h3.04552132l4.71218179 9.185182h.03543801V103.5696h2.37327292v12.282114H8.44928129l-4.72936385-9.185182h-.03543802v9.185182H1.31120646V103.5696"/><g transform="translate(14.227825 103.358373)"><mask fill="#fff"><use xlink:href="#a"/></mask><path fill="#005EB8" d="M0 .21122719h2.48066088v4.96170542h4.95917399V.21122719h2.479587V12.4933417h-2.479587V7.10918187H2.48066088v5.38415983H0V.21122719M19.4350652 2.46325044c-.7796363-.33390965-1.6484045-.52700118-2.515025-.52700118-.8505123 0-1.9490907.36911419-1.9490907 1.70688641 0 2.12934079 5.4198681 1.23109182 5.4198681 5.34895527 0 2.69261326-2.1434628 3.71354476-4.6402318 3.71354476-1.3466445 0-1.9490907-.1760227-3.1711652-.4757946l.230884-2.2178855c.8505123.4587257 1.8245207.7574308 2.7985291.7574308.9385704 0 2.1960829-.4747278 2.1960829-1.58313714 0-2.34056798-5.4198682-1.37297675-5.4198682-5.4385668C12.3850484 1.00279576 14.5274374 0 16.7074121 0c1.0620665 0 2.0543308.14081813 2.9574632.44059005l-.2298101 2.02266039" mask="url(#b)"/></g><path fill="#005EB8" d="M44.0473018 105.504782h-3.5416535V103.5696h9.5650418v1.935182h-3.5427274v10.346932h-2.4806609v-10.346932"/><g transform="translate(49.86021 104.22035)"><mask fill="#fff"><use xlink:href="#c"/></mask><path fill="#005EB8" d="M0 2.56886404h2.10695093v2.05999853h.03651189c.10524016-.84490877 1.08032244-2.27015892 2.49676906-2.27015892.23088402 0 .47895011 0 .7270162.06934226v2.37577251c-.21370195-.12268246-.63788423-.19309152-1.06314038-.19309152-1.93083474 0-1.93083474 2.39390818-1.93083474 3.69540906V11.631364H0V2.56886404M15.2179417 11.631364h-2.248703v-1.2310918h-.035438c-.7270162.8790465-1.7536447 1.4433858-2.995049 1.4433858-2.15957101 0-3.09921528-1.5137948-3.09921528-3.5545909V2.56886404h2.37434684v4.83902295c0 1.10947616.01718207 2.60513541 1.53994274 2.60513541 1.7192805 0 2.0908427-1.84770457 2.0908427-3.00838732V2.56886404h2.373273V11.631364M23.0862543 4.47097557c-.7270161-.24749852-1.2575125-.38831665-2.1262807-.38831665-.6378842 0-1.3992646.22829605-1.3992646 1.00386256 0 1.44231901 4.1269177.52700118 4.1269177 3.79995586 0 2.11227196-1.8943229 2.95718066-3.8251576 2.95718066-.9042063 0-1.8255946-.1589538-2.6922151-.3883166l.1417521-1.93518248c.7431243.37018099 1.5227606.59847708 2.336761.59847708.6024462 0 1.5603465-.22829609 1.5603465-1.1094762 0-1.77729547-4.1279916-.56220571-4.1279916-3.83516039 0-1.95331813 1.7171328-2.81529576 3.5781654-2.81529576 1.1157605 0 1.8427767.17602266 2.5859011.33497646l-.1589342 1.77729546M26.3132612 4.29495291h-1.7547185V2.56886404h1.7547185V.75743084L28.6854603 0v2.56886404h2.1080248v1.72608887h-2.1080248v4.22241024c0 .77449971.213702 1.49565925 1.1168344 1.49565925.4241822 0 .8322563-.08747796 1.0792485-.24643176l.0719499 1.86477336c-.4961321.1408182-1.0459583.212294-1.7536447.212294-1.8599587 0-2.8865872-1.1446807-2.8865872-2.93904499v-4.6096601" mask="url(#d)"/></g></g></svg>
