<svg    id="Layer_1"   
        data-name="Layer 1" 
        xmlns="http://www.w3.org/2000/svg" 
        xmlns:xlink="http://www.w3.org/1999/xlink"
        width="336"
        height="124" 
        viewBox="0 0 336 124"
>
    <rect x="207.86" y="2.58" width="123.67" height="47.24" fill="#fff" />
    <path
        d="M330.18,7l-2.68,8.26a22,22,0,0,0-9.22-1.92c-4.42,0-8.07.57-8.07,4,0,5.76,16.33,3.65,16.33,16.13,0,11.33-10.76,14.4-20.55,14.4a47.16,47.16,0,0,1-12.87-2.11l2.69-8.45a21.55,21.55,0,0,0,10.37,2.31c3.46,0,9-.58,9-4.8,0-6.53-16.33-4-16.33-15.75,0-10.56,9.41-13.83,18.63-13.83A29,29,0,0,1,330.18,7M297.92,5.85l-8.64,41.09H278l3.65-17.66H268.35L264.7,46.94H253.37L262,5.85h11.14l-3.27,15.74h13.26L286.4,5.85Zm-39.75,0-9,41.09h-14l-8.84-28.42h-.19l-5.76,28.42H209.78l9-41.09h14l8.64,28.61h.2l6-28.61ZM335,.85H206.32V51.94H334.79Z"
        fill="#005eb8" />
    <path
        d="M72.28,67.49h5.57c5.57,0,12.09-.19,12.09,6.92a5.69,5.69,0,0,1-5.18,5.76h0c1.34.19,2.11,1.53,2.69,2.68l4,9.8H85.72l-3.07-7.87c-.77-1.93-1.35-2.69-3.46-2.69H77.27V92.46h-5Zm5,10.76H79c2.49,0,5.38-.39,5.38-3.46S81.49,71.52,79,71.52H77.27Z"
        fill="#1c1919" />
    <path
        d="M103.2,73.64A9.27,9.27,0,0,1,113,82.47v1a9.1,9.1,0,0,1-8.83,9.6h-1a9.22,9.22,0,0,1-9.8-8.64v-1a9.28,9.28,0,0,1,8.83-9.79Zm0,15.55c3.84,0,4.8-3.26,4.8-6.34a4.75,4.75,0,0,0-9.41-1.34v1.54c-.2,2.88.76,6.14,4.61,6.14Z"
        fill="#1c1919" />
    <path
        d="M124.7,87.66h0L129.31,74h5L127.2,92.46c-1.54,4-2.69,8.06-7.87,8.06a11,11,0,0,1-3.46-.57l.38-3.65a11.38,11.38,0,0,0,2.5.38A3.16,3.16,0,0,0,122,93.8v-.38L114.72,74h5.37Z"
        fill="#1c1919" />
    <path
        d="M138,75a15.35,15.35,0,0,1,6.53-1.34c5.76,0,8.07,2.3,8.07,7.87v7.11c0,1.34.19,2.68.19,4.22h-4.22a13.08,13.08,0,0,1-.2-2.69h0a6.53,6.53,0,0,1-5.76,3.27A6,6,0,0,1,136,88v-.19a5.45,5.45,0,0,1,3.27-5.38,17.59,17.59,0,0,1,6.34-1.15h2.68c0-3.07-1.34-4-4.22-4a8.82,8.82,0,0,0-5.76,2.11Zm5.77,14.6a4.11,4.11,0,0,0,3.45-1.73,5.53,5.53,0,0,0,1-3.84H146c-2.11,0-5.38.38-5.38,3.26C140.64,88.81,142,89.58,143.72,89.58Z"
        fill="#1c1919" />
    <path d="M157.54,65.57h4.8V92.65h-4.8Z" fill="#1c1919" />
    <path
        d="M178.28,67.49h8.84c3.26,0,8.25,1,8.25,6.53a5.47,5.47,0,0,1-5,5.57h0a5.66,5.66,0,0,1,5.76,5.76c0,6.34-5.76,7.3-9,7.3h-8.84Zm5,10.18h2.11c2.11,0,4.8-.38,4.8-3.07,0-2.88-2.5-3.08-5-3.08h-1.92Zm0,11h2.49c2.31,0,5.19-.58,5.19-3.46,0-3.27-2.69-3.84-5.19-3.84h-2.49Z"
        fill="#1c1919" />
    <path
        d="M215.15,91.5A14.83,14.83,0,0,1,208.62,93a8.84,8.84,0,0,1-9.79-7.87V83.43c0-5.38,2.88-9.79,8.64-9.79,6.92,0,9,4.8,9,11.14H203.44a4.92,4.92,0,0,0,5,4.8h.39a12.27,12.27,0,0,0,6.33-1.92Zm-3.26-10c-.19-2.3-1.15-4.42-4-4.42a4.4,4.4,0,0,0-4.42,4v.19h8.45Z"
        fill="#1c1919" />
    <path
        d="M220.53,74H225v4.23h0a5.52,5.52,0,0,1,5.18-4.61,4.29,4.29,0,0,1,1.54.19v4.8a4.55,4.55,0,0,0-2.11-.38c-4,0-4,5-4,7.49v6.91h-4.8V74Z"
        fill="#1c1919" />
    <path d="M234.74,65.57h4.8V81.51h0L245.3,74h5.76L244,82.28l7.87,10.37h-6.14l-6-9h0v9h-4.8Z" fill="#1c1919" />
    <path
        d="M266,77.86a11.35,11.35,0,0,0-4.41-.77c-1.35,0-2.88.39-2.88,2.12,0,2.88,8.45,1.15,8.45,7.87,0,4.42-3.84,6.14-7.88,6.14a26.26,26.26,0,0,1-5.57-.76l.39-4a10.37,10.37,0,0,0,4.8,1.16c1.15,0,3.26-.39,3.26-2.31,0-3.65-8.45-1.15-8.45-7.87,0-4,3.46-5.76,7.3-5.76a17.25,17.25,0,0,1,5.38.77Z"
        fill="#1c1919" />
    <path
        d="M271.23,65.57H276v11h0a6.7,6.7,0,0,1,6-2.88c4.42,0,6.34,3.07,6.34,7.29V92.65h-4.8v-10c0-2.3,0-5.37-3.27-5.37-3.45,0-4.22,3.84-4.22,6.14v9h-4.8Z"
        fill="#1c1919" />
    <path d="M293.51,66h4.8v4.6h-4.8Zm0,8.06h4.8V92.65h-4.8Z" fill="#1c1919" />
    <path
        d="M303.68,74h4.42v4.23h0a5.54,5.54,0,0,1,5.19-4.61,4.24,4.24,0,0,1,1.53.19v4.8a4.53,4.53,0,0,0-2.11-.38c-4,0-4,5-4,7.49v6.91h-4.8Z"
        fill="#1c1919" />
    <path
        d="M332.3,91.5A14.87,14.87,0,0,1,325.77,93a8.85,8.85,0,0,1-9.8-7.87V83.43c0-5.38,2.88-9.79,8.65-9.79,6.91,0,9,4.8,9,11.14H320.58a4.93,4.93,0,0,0,5,4.8H326a12.31,12.31,0,0,0,6.34-1.92Zm-3.27-10c-.19-2.3-1.15-4.42-4-4.42a4.41,4.41,0,0,0-4.42,4v.19H329Z"
        fill="#1c1919" />
    <path d="M87.26,105.9h4.22L98,118.38h0V105.9h3.26v16.71H97.05l-6.53-12.49h0v12.49H87.26Z" fill="#0072ce" />
    <path d="M105.12,105.9h3.45v6.72h6.92V105.9h3.45v16.71h-3.45v-7.3h-6.73v7.3h-3.64Z" fill="#0072ce" />
    <path
        d="M131.81,109a11.36,11.36,0,0,0-3.46-.77,2.42,2.42,0,0,0-2.69,2.31c0,2.88,7.49,1.73,7.49,7.3,0,3.64-2.88,5-6.33,5a17.2,17.2,0,0,1-4.42-.58l.38-3.07a8.73,8.73,0,0,0,3.84,1c1.35,0,3.08-.58,3.08-2.11,0-3.27-7.49-1.92-7.49-7.49,0-3.84,2.88-5.19,6-5.19a14.76,14.76,0,0,1,4,.58Z"
        fill="#0072ce" />
    <path d="M143,105.9h9.41v2.69h-6v4.22h5.77v2.69H146.4v7.3H143Z" fill="#0072ce" />
    <path
        d="M160.61,109.93a6.24,6.24,0,0,1,6.53,6v.76a6.53,6.53,0,0,1-13,0,6.23,6.23,0,0,1,5.95-6.53A.7.7,0,0,1,160.61,109.93Zm0,10.56c2.5,0,3.08-2.3,3.08-4.22a3.21,3.21,0,0,0-6.34-1v1c.19,1.92.77,4.22,3.26,4.22Z"
        fill="#0072ce" />
    <path
        d="M181.35,122.61h-3.26v-1.73h0a4.84,4.84,0,0,1-4,1.92c-2.88,0-4.23-2.11-4.23-4.8v-7.88h3.27v6.53c0,1.54,0,3.65,2.11,3.65,2.3,0,2.88-2.49,2.88-4v-6.15h3.26Z"
        fill="#0072ce" />
    <path
        d="M184.62,110.32h3.07V112h0a4.39,4.39,0,0,1,4-1.92c2.89,0,4.23,2.12,4.23,4.81v7.87h-3.26v-6.53c0-1.54,0-3.65-2.12-3.65-2.3,0-2.88,2.5-2.88,4v6.15h-3.26Z"
        fill="#0072ce" />
    <path
        d="M207.86,121.26h0A5.13,5.13,0,0,1,204,123c-3.85,0-5.19-3.07-5.19-6.53s1.34-6.53,5.19-6.53a4.85,4.85,0,0,1,3.84,1.73h0v-7.1h3.26v18h-3.07v-1.35Zm-3.08-.77c2.12,0,2.88-2.3,2.88-4s-.76-4-2.88-4-2.68,2.3-2.68,4S202.67,120.49,204.78,120.49Z"
        fill="#0072ce" />
    <path
        d="M215,110.89a11.53,11.53,0,0,1,4.42-1c3.84,0,5.38,1.54,5.38,5.19v4.61a12.73,12.73,0,0,0,.19,2.68h-2.88c0-.57-.19-1.15-.19-1.92h0a4.43,4.43,0,0,1-3.85,2.12,4.06,4.06,0,0,1-4.41-3.65v-.19a3.64,3.64,0,0,1,2.11-3.46,10.26,10.26,0,0,1,4.22-.77h1.93c0-1.92-1-2.69-2.89-2.69a7.17,7.17,0,0,0-3.84,1.35Zm3.84,9.8a2.75,2.75,0,0,0,2.31-1.16,4.23,4.23,0,0,0,.77-2.49h-1.54c-1.54,0-3.65.19-3.65,2.11,0,1,1,1.54,2.11,1.54Z"
        fill="#0072ce" />
    <path
        d="M229,112.62h-2.5v-2.3H229v-2.5l3.27-1v3.46h2.88v2.3h-2.88v5.76c0,1.15.38,2.11,1.53,2.11a4.58,4.58,0,0,0,1.54-.38l.19,2.5a5.39,5.39,0,0,1-2.5.19,3.8,3.8,0,0,1-4-3.27v-6.91Z"
        fill="#0072ce" />
    <path d="M237.43,104.94h3.26V108h-3.26Zm0,5.38h3.26V122.8h-3.26Z" fill="#0072ce" />
    <path
        d="M249.91,109.93a6.24,6.24,0,0,1,6.53,6v.76a6.53,6.53,0,0,1-13.06,0,6.25,6.25,0,0,1,6-6.53A.7.7,0,0,1,249.91,109.93Zm0,10.56c2.5,0,3.08-2.3,3.08-4.22a3.21,3.21,0,1,0-6.34-1v1c.19,1.92.77,4.22,3.26,4.22Z"
        fill="#0072ce" />
    <path
        d="M259.13,110.32h3.07V112h0a4.39,4.39,0,0,1,4-1.92c2.88,0,4.22,2.12,4.22,4.81v7.87H267.2v-6.53c0-1.54,0-3.65-2.12-3.65-2.3,0-2.88,2.5-2.88,4v6.15h-3.26Z"
        fill="#0072ce" />
    <path d="M284.1,108.59h-4.81V105.9h13.06v2.69h-4.8V122.8H284.1Z" fill="#0072ce" />
    <path
        d="M292.16,110.32H295v2.88h0a3.9,3.9,0,0,1,3.46-3.08c.38,0,.77,0,1,.2v3.26a3.8,3.8,0,0,0-1.54-.19c-2.69,0-2.69,3.26-2.69,5V123H292V110.32Z"
        fill="#0072ce" />
    <path
        d="M312.9,122.61h-3.07v-1.73h0a4.84,4.84,0,0,1-4,1.92c-2.88,0-4.23-2.11-4.23-4.8v-7.88h3.27v6.53c0,1.54,0,3.65,2.11,3.65,2.3,0,2.88-2.49,2.88-4v-6.15h3.26Z"
        fill="#0072ce" />
    <path
        d="M323.85,112.81a7.77,7.77,0,0,0-2.88-.57c-1,0-1.92.38-1.92,1.34,0,1.92,5.76.77,5.76,5.19,0,2.88-2.69,4-5.19,4a11.08,11.08,0,0,1-3.65-.58l.2-2.69a6.26,6.26,0,0,0,3.26.77c.77,0,2.11-.38,2.11-1.53,0-2.5-5.76-.77-5.76-5.19,0-2.69,2.31-3.84,5-3.84a26.34,26.34,0,0,1,3.65.38Z"
        fill="#0072ce" />
    <path
        d="M328.26,112.62h-2.49v-2.3h2.49v-2.5l3.27-1v3.46h2.88v2.3h-2.88v5.76c0,1.15.38,2.11,1.54,2.11a4.53,4.53,0,0,0,1.53-.38l.19,2.5a5.33,5.33,0,0,1-2.49.19,3.82,3.82,0,0,1-4-3.27v-6.91Z"
        fill="#0072ce" /></svg>