<svg width="235" height="77" viewBox="0 0 235 77" fill="none" xmlns="http://www.w3.org/2000/svg">
<g clip-path="url(#clip0_275_932)">
<path d="M0.92865 76.8092H3.03656V68.8345H3.07559L7.25238 76.8092H9.90678V66.1635H7.79887V74.1382H7.75984L3.62209 66.1635H0.92865V76.8092ZM12.327 76.8092H14.5129V72.1541H18.8849V76.8092H21.0709V66.1635H18.8849V70.4752H14.5129V66.1635H12.327V76.8092ZM29.6587 66.3543C28.878 66.0872 27.9801 65.9727 27.0433 65.9727C25.1306 65.9727 23.2178 66.8503 23.2178 69.216C23.2178 72.7264 27.9801 71.887 27.9801 73.9474C27.9801 74.9014 26.8872 75.3211 26.0284 75.3211C25.1696 75.3211 24.3108 75.054 23.5691 74.6724L23.374 76.5802C24.467 76.8473 24.9744 77 26.1845 77C28.3705 77 30.2832 76.1224 30.2832 73.7948C30.2832 70.2081 25.5209 71.0094 25.5209 69.1397C25.5209 67.995 26.4968 67.6516 27.2385 67.6516C28.0192 67.6516 28.7608 67.8042 29.4635 68.1095L29.6587 66.3543ZM36.607 76.8092H38.7929V72.1541H42.4623V70.4752H38.7929V67.8424H42.6574V66.1635H36.607V76.8092ZM43.7114 72.9172C43.7114 75.1685 45.2728 76.9618 47.9272 76.9618C50.5816 76.9618 52.143 75.1685 52.143 72.9172C52.143 70.3226 50.3084 68.7581 47.9272 68.7581C45.546 68.7581 43.7114 70.3226 43.7114 72.9172ZM45.8974 72.6883C45.8974 71.5054 46.561 70.3607 47.9272 70.3607C49.2934 70.3607 49.957 71.5054 49.957 72.6883C49.957 73.9856 49.5277 75.3974 47.9272 75.3974C46.3268 75.3974 45.8974 73.9856 45.8974 72.6883ZM61.1602 68.9489H59.0523V72.8027C59.0523 73.7948 58.74 75.3974 57.2176 75.3974C55.8904 75.3974 55.8514 74.1001 55.8514 73.1462V68.9489H53.7435V73.9093C53.7435 75.6645 54.5632 77 56.4759 77C57.5689 77 58.4668 76.5039 59.1304 75.7408H59.1694V76.8092H61.1602V68.9489ZM63.3071 76.8092H65.415V72.9554C65.415 71.9633 65.7273 70.3607 67.2497 70.3607C68.5769 70.3607 68.6159 71.658 68.6159 72.612V76.8092H70.7238V71.8488C70.7238 70.0936 69.9041 68.7581 67.9914 68.7581C66.8984 68.7581 66.0006 69.1016 65.337 70.0173H65.2979V68.9489H63.3071V76.8092ZM74.5103 72.8409C74.5103 71.7725 74.9006 70.3226 76.2278 70.3226C77.555 70.3226 78.1015 71.7344 78.1015 72.8409C78.1015 73.9474 77.6331 75.3974 76.2669 75.3974C74.9006 75.3974 74.5103 73.9474 74.5103 72.8409ZM78.2186 76.8092H80.2485V65.3622H78.1406V69.8647H78.1015C77.477 69.1016 76.7353 68.7581 75.6813 68.7581C73.2221 68.7581 72.3243 70.666 72.3243 72.8409C72.3243 74.9777 73.2221 76.9618 75.6813 76.9618C76.6572 76.9618 77.516 76.6566 78.1406 75.8934H78.1796V76.8092H78.2186ZM82.8248 71.1239C83.5274 70.5897 84.4252 70.2844 85.3231 70.2844C86.5722 70.2844 87.1187 70.7041 87.1187 71.9633H85.9476C85.0889 71.9633 84.0349 72.0396 83.2542 72.4212C82.4735 72.8027 81.888 73.4896 81.888 74.6724C81.888 76.1605 83.2932 77 84.6985 77C85.6353 77 86.6893 76.5039 87.1968 75.6263H87.2358C87.2358 75.8553 87.2358 76.3895 87.3139 76.8092H89.1485C89.1095 76.1987 89.0705 75.6645 89.0705 75.054C89.0705 74.4816 89.0314 73.8711 89.0314 73.0698V72.0778C89.0314 69.7502 88.0165 68.7581 85.5573 68.7581C84.6595 68.7581 83.5665 68.9871 82.7467 69.3687L82.8248 71.1239ZM83.8788 74.5198C83.8788 73.2988 85.284 73.1462 86.2209 73.1462H87.1187C87.1187 73.7567 87.0406 74.329 86.6893 74.7487C86.377 75.1685 85.8696 75.4355 85.206 75.4355C84.4643 75.5119 83.8788 75.2066 83.8788 74.5198ZM91.7639 74.4435C91.7639 76.0079 92.6617 77 94.3012 77C94.9258 77 95.3942 76.9237 95.8626 76.8092L95.7845 75.2066C95.5503 75.3592 95.199 75.4355 94.8477 75.4355C94.067 75.4355 93.8718 74.825 93.8718 74.1382V70.4752H95.7455V68.9871H93.8328V66.774L91.7249 67.4227V68.9871H90.1635V70.4752H91.7249V74.4435H91.7639ZM97.1898 76.8092H99.2977V68.9489H97.1898V76.8092ZM97.1898 67.499H99.2977V65.553H97.1898V67.499ZM100.976 72.9172C100.976 75.1685 102.538 76.9618 105.192 76.9618C107.846 76.9618 109.408 75.1685 109.408 72.9172C109.408 70.3226 107.573 68.7581 105.192 68.7581C102.811 68.7581 100.976 70.3226 100.976 72.9172ZM103.162 72.6883C103.162 71.5054 103.826 70.3607 105.192 70.3607C106.558 70.3607 107.222 71.5054 107.222 72.6883C107.222 73.9856 106.793 75.3974 105.192 75.3974C103.592 75.3974 103.162 73.9856 103.162 72.6883ZM111.008 76.8092H113.116V72.9554C113.116 71.9633 113.429 70.3607 114.951 70.3607C116.278 70.3607 116.317 71.658 116.317 72.612V76.8092H118.425V71.8488C118.425 70.0936 117.605 68.7581 115.693 68.7581C114.6 68.7581 113.702 69.1016 113.038 70.0173H112.999V68.9489H111.008V76.8092ZM127.091 76.8092H129.277V67.8424H132.4V66.1635H123.968V67.8424H127.091V76.8092ZM132.205 76.8092H134.312V73.9093C134.312 72.7646 134.312 70.7041 136.03 70.7041C136.42 70.7041 136.772 70.7804 136.967 70.8568V68.7963C136.733 68.72 136.537 68.72 136.342 68.72C135.093 68.72 134.234 69.941 134.156 70.7041H134.039V68.9108H132.165V76.8092H132.205ZM145.594 68.9489H143.486V72.8027C143.486 73.7948 143.173 75.3974 141.651 75.3974C140.324 75.3974 140.285 74.1001 140.285 73.1462V68.9489H138.177V73.9093C138.177 75.6645 138.997 77 140.909 77C142.002 77 142.9 76.5039 143.564 75.7408H143.603V76.8092H145.594V68.9489ZM152.698 69.0634C152.034 68.9108 151.41 68.7581 150.434 68.7581C148.795 68.7581 147.272 69.5213 147.272 71.2002C147.272 74.0238 150.902 72.9935 150.902 74.5198C150.902 75.2829 150.044 75.4737 149.536 75.4737C148.834 75.4737 148.131 75.2829 147.467 74.9395L147.35 76.6184C148.131 76.8092 148.912 76.9618 149.731 76.9618C151.449 76.9618 153.088 76.2368 153.088 74.4053C153.088 71.5817 149.458 72.3449 149.458 71.1239C149.458 70.437 150.122 70.2463 150.707 70.2463C151.488 70.2463 151.956 70.3607 152.581 70.5897L152.698 69.0634ZM155.392 74.4435C155.392 76.0079 156.289 77 157.929 77C158.553 77 159.022 76.9237 159.49 76.8092L159.412 75.2066C159.178 75.3592 158.827 75.4355 158.475 75.4355C157.695 75.4355 157.499 74.825 157.499 74.1382V70.4752H159.373V68.9871H157.46V66.774L155.352 67.4227V68.9871H153.791V70.4752H155.352V74.4435H155.392Z" fill="#005EB8"/>
<path d="M14.7081 42.1249C13.3029 41.7052 11.8195 41.4762 9.90678 41.4762C4.36376 41.4762 0.92865 44.5287 0.92865 50.0233C0.92865 55.4034 4.59797 57.998 9.90678 57.998C11.6634 57.998 13.459 57.6165 15.2156 57.1586V48.5352H8.57958V51.0535H12.0537V55.2126C11.5072 55.3652 10.8046 55.4415 9.90678 55.4415C6.43263 55.4415 4.36376 52.9995 4.36376 49.7562C4.36376 46.4747 6.47167 43.9564 10.2971 43.9564C11.6243 43.9564 13.2638 44.2235 14.5129 44.7958L14.7081 42.1249ZM29.4245 45.9405H26.3016V51.7022C26.3016 53.2284 25.7942 55.6323 23.5301 55.6323C21.5003 55.6323 21.5003 53.6863 21.5003 52.2364V45.9405H18.3774V53.3811C18.3774 56.052 19.6266 57.998 22.4762 57.998C24.1156 57.998 25.4819 57.273 26.4187 56.1283H26.4578V57.7309H29.4245V45.9405ZM34.7723 45.9405H31.2981L35.9043 58.3414C35.9043 59.6006 35.1236 60.44 33.8745 60.44C33.0938 60.44 32.6644 60.3637 32.274 60.2493L32.0789 62.5005C32.8205 62.6913 33.5622 62.8058 34.3039 62.8058C37.5828 62.8058 38.3245 60.2493 39.3004 57.6165L43.8285 45.9024H40.6276L37.739 54.5639H37.6999L34.7723 45.9405ZM44.8824 47.4668H47.654L49.8009 41.7433H46.3658L44.8824 47.4668ZM57.8422 46.0932C56.8663 45.9024 55.8904 45.6734 54.4071 45.6734C51.9478 45.6734 49.6838 46.78 49.6838 49.3365C49.6838 53.61 55.1487 52.0074 55.1487 54.335C55.1487 55.4797 53.8996 55.7849 53.0799 55.7849C51.9869 55.7849 50.972 55.4797 49.9961 55.0218L49.8009 57.5401C50.9329 57.8454 52.1821 58.0362 53.3531 58.0362C55.8904 58.0362 58.4277 56.9296 58.4277 54.1824C58.4277 49.9088 52.9628 51.1298 52.9628 49.222C52.9628 48.2299 53.9777 47.9247 54.7974 47.9247C55.9295 47.9247 56.6321 48.1155 57.608 48.4207L57.8422 46.0932ZM67.9914 49.1838C69.0453 48.4207 70.3725 47.8865 71.6997 47.8865C73.5344 47.8865 74.4322 48.5352 74.4322 50.443H72.7146C71.3874 50.443 69.8651 50.5575 68.655 51.1298C67.4449 51.7022 66.5861 52.7324 66.5861 54.4876C66.5861 56.7389 68.655 57.998 70.8019 57.998C72.2462 57.998 73.8076 57.273 74.5103 55.9757H74.5493C74.5883 56.3573 74.5883 57.1204 74.7055 57.7309H77.477C77.3989 56.8152 77.3599 55.9757 77.3208 55.0981C77.2818 54.2205 77.2818 53.3429 77.2818 52.1601V50.6338C77.2818 47.1615 75.7594 45.6734 72.0901 45.6734C70.7629 45.6734 69.1234 46.0168 67.9133 46.551L67.9914 49.1838ZM69.5918 54.335C69.5918 52.5416 71.6607 52.3127 73.066 52.3127H74.4322C74.4322 53.2284 74.2761 54.0679 73.7686 54.7547C73.2611 55.4034 72.5195 55.8231 71.5826 55.8231C70.4506 55.7468 69.5918 55.3271 69.5918 54.335ZM80.4046 57.7309H83.5274V51.9693C83.5274 50.443 84.0349 48.0391 86.2989 48.0391C88.3288 48.0391 88.3288 49.9851 88.3288 51.4351V57.7309H91.4516V50.2904C91.4516 47.6194 90.2025 45.6734 87.3529 45.6734C85.7134 45.6734 84.3862 46.2076 83.4103 47.5431H83.3713V45.9405H80.4046V57.7309ZM97.2288 51.8167C97.2288 50.2522 97.7753 48.0773 99.8442 48.0773C101.874 48.0773 102.655 50.1759 102.655 51.8167C102.655 53.4955 101.991 55.6323 99.8832 55.6323C97.8144 55.6323 97.2288 53.4192 97.2288 51.8167ZM102.733 57.7309H105.778V40.5605H102.655V47.3142H102.616C101.679 46.2076 100.586 45.6734 99.0245 45.6734C95.3161 45.6734 93.9499 48.5733 93.9499 51.8167C93.9499 55.06 95.3161 58.0362 99.0245 58.0362C100.508 58.0362 101.796 57.5783 102.733 56.4336H102.772V57.7309H102.733ZM124.905 42.0486C123.695 41.667 122.407 41.4762 121.001 41.4762C118.113 41.4762 115.302 42.7735 115.302 46.3603C115.302 51.664 122.485 50.4049 122.485 53.4192C122.485 54.8692 120.806 55.4797 119.596 55.4797C118.308 55.4797 117.02 55.0981 115.888 54.4876L115.575 57.3875C117.176 57.7691 117.996 57.998 119.752 57.998C123.07 57.998 125.881 56.6625 125.881 53.1521C125.881 47.8102 118.698 48.9549 118.698 46.2076C118.698 44.4524 120.143 43.9945 121.275 43.9945C122.407 43.9945 123.578 44.2616 124.593 44.6814L124.905 42.0486ZM129.589 54.1824C129.589 56.5099 130.955 57.998 133.415 57.998C134.351 57.998 135.093 57.9217 135.718 57.7309L135.64 55.2889C135.327 55.4797 134.781 55.5942 134.195 55.5942C132.985 55.5942 132.712 54.6402 132.712 53.6482V48.1536H135.483V45.9024H132.712V42.5446L129.589 43.5367V45.9024H127.286V48.1536H129.589V54.1824ZM147.428 57.7309H150.707V44.2616H155.392V41.7433H142.744V44.2616H147.428V57.7309ZM157.187 57.7309H160.31V51.9693C160.31 50.443 160.817 48.0391 163.081 48.0391C165.111 48.0391 165.111 49.9851 165.111 51.4351V57.7309H168.234V50.2904C168.234 47.6194 166.985 45.6734 164.135 45.6734C162.496 45.6734 161.13 46.3984 160.349 47.5431H160.31V40.5605H157.187V57.7309ZM170.732 51.9311C170.732 55.3271 173.035 58.0362 177.017 58.0362C181.038 58.0362 183.341 55.3271 183.341 51.9311C183.341 48.0391 180.608 45.6734 177.017 45.6734C173.465 45.6734 170.732 48.0391 170.732 51.9311ZM174.011 51.5496C174.011 49.7944 174.987 48.0391 177.017 48.0391C179.086 48.0391 180.062 49.718 180.062 51.5496C180.062 53.5337 179.437 55.6323 177.017 55.6323C174.636 55.6323 174.011 53.4955 174.011 51.5496ZM185.761 57.7309H188.884V52.0074C188.884 50.4812 189.157 48.0391 191.226 48.0391C193.022 48.0391 193.022 49.6036 193.022 50.7101V57.7309H196.144V52.0074C196.144 50.4812 196.418 48.0391 198.487 48.0391C200.282 48.0391 200.282 49.6036 200.282 50.7101V57.7309H203.405V50.2904C203.405 47.6576 202.546 45.6734 199.58 45.6734C198.096 45.6734 196.535 46.3221 195.793 47.772C195.129 46.3221 193.919 45.6734 192.241 45.6734C191.07 45.6734 189.626 46.1695 188.65 47.5813H188.689V45.9405H185.761V57.7309ZM207.269 49.1838C208.323 48.4207 209.651 47.8865 210.978 47.8865C212.812 47.8865 213.71 48.5352 213.71 50.443H211.993C210.666 50.443 209.143 50.5575 207.933 51.1298C206.723 51.7022 205.864 52.7324 205.864 54.4876C205.864 56.7389 207.933 57.998 210.08 57.998C211.524 57.998 213.086 57.273 213.788 55.9757H213.827C213.866 56.3573 213.866 57.1204 213.984 57.7309H216.755C216.677 56.8152 216.638 55.9757 216.599 55.0981C216.56 54.2205 216.56 53.3429 216.56 52.1601V50.6338C216.56 47.1615 215.038 45.6734 211.368 45.6734C210.041 45.6734 208.402 46.0168 207.191 46.551L207.269 49.1838ZM208.87 54.335C208.87 52.5416 210.939 52.3127 212.344 52.3127H213.71C213.71 53.2284 213.554 54.0679 213.047 54.7547C212.539 55.4034 211.798 55.8231 210.861 55.8231C209.729 55.7468 208.87 55.3271 208.87 54.335ZM227.021 46.0932C226.045 45.9024 225.07 45.6734 223.586 45.6734C221.127 45.6734 218.863 46.78 218.863 49.3365C218.863 53.61 224.328 52.0074 224.328 54.335C224.328 55.4797 223.079 55.7849 222.259 55.7849C221.166 55.7849 220.151 55.4797 219.175 55.0218L218.98 57.5401C220.112 57.8454 221.361 58.0362 222.532 58.0362C225.07 58.0362 227.607 56.9296 227.607 54.1824C227.607 49.9088 222.142 51.1298 222.142 49.222C222.142 48.2299 223.157 47.9247 223.977 47.9247C225.109 47.9247 225.811 48.1155 226.787 48.4207L227.021 46.0932ZM229.246 47.4668H232.018L234.165 41.7433H230.73L229.246 47.4668Z" fill="#231F20"/>
<rect width="92" height="42" transform="translate(-9 -10)" fill="white"/>
<path d="M83.4426 32.4331V0H1V32.4331H83.4426ZM34.141 3.12884L28.4418 29.2661H19.5418L13.9207 11.1799H13.8426L10.0952 29.2661H3.34212L9.08032 3.12884H18.0584L23.5624 21.2532H23.6405L27.4269 3.12884H34.141ZM59.6701 3.12884L54.0881 29.2661H46.9056L49.2867 18.0862H40.777L38.3959 29.2661H31.2134L36.7954 3.12884H43.9779L41.87 13.1259H50.3797L52.4876 3.12884H59.6701ZM80.3588 3.85382L78.6413 9.04311C77.2751 8.39445 75.3623 7.86026 72.7079 7.86026C69.8583 7.86026 67.5553 8.27998 67.5553 10.3786C67.5553 14.0798 77.9777 12.7061 77.9777 20.6427C77.9777 27.8543 71.1075 29.724 64.8618 29.724C62.0903 29.724 58.8894 29.0753 56.5473 28.3885L58.2258 23.0847C59.6311 24.0005 62.4807 24.5728 64.8228 24.5728C67.0478 24.5728 70.561 24.1531 70.561 21.4822C70.561 17.2849 60.1385 18.8494 60.1385 11.4851C60.1385 4.73142 66.2281 2.70912 72.1224 2.70912C75.4404 2.67096 78.5242 3.01437 80.3588 3.85382Z" fill="#005EB8"/>
</g>
<defs>
<clipPath id="clip0_275_932">
<rect width="233.236" height="77" fill="white" transform="translate(0.92865)"/>
</clipPath>
</defs>
</svg>
