<svg width="202" height="39" viewBox="0 0 202 39" fill="none" xmlns="http://www.w3.org/2000/svg">
<path d="M18.9497 9.02329V0.0622559L9.3302 13.815L18.9497 9.02329Z" fill="#FABD05" fill-opacity="0.77"/>
<path d="M0.0722656 19.4156V9.45886L9.40245 13.7527L0.0722656 19.4156Z" fill="#CF0404"/>
<path d="M9.40252 13.7527L0 9.45887L19.0943 0L9.40252 13.7527Z" fill="#FA710F"/>
<path d="M9.40247 13.6905V23.6472L0.0722771 19.3534L9.40247 13.6905Z" fill="#EB4536" fill-opacity="0.77"/>
<path d="M4.0503 29.3101V38.2711L13.6698 24.5184L4.0503 29.3101Z" fill="#34A853" fill-opacity="0.77"/>
<path d="M22.9277 18.9177V28.8745L13.5975 24.5806L22.9277 18.9177Z" fill="#4287F5" fill-opacity="0.77"/>
<path d="M13.5975 24.5806L23 28.8744L3.90566 38.3333L13.5975 24.5806Z" fill="#2EA44E"/>
<path d="M13.5975 24.6429V14.6862L22.9277 18.98L13.5975 24.6429Z" fill="#3171D5"/>
<path d="M46.4055 17.5078C46.3459 16.9496 46.0945 16.5149 45.6513 16.2038C45.2124 15.8928 44.6413 15.7372 43.9382 15.7372C43.4439 15.7372 43.0199 15.8118 42.6662 15.9609C42.3125 16.1101 42.0419 16.3125 41.8544 16.5682C41.6669 16.8239 41.571 17.1158 41.5668 17.4439C41.5668 17.7166 41.6286 17.9531 41.7521 18.1534C41.88 18.3537 42.0526 18.5241 42.2699 18.6648C42.4872 18.8011 42.728 18.9162 42.9922 19.0099C43.2564 19.1037 43.5227 19.1825 43.7912 19.2464L45.0185 19.5533C45.5128 19.6683 45.9879 19.8239 46.4439 20.0199C46.9041 20.2159 47.3153 20.4631 47.6776 20.7614C48.044 21.0597 48.3338 21.4197 48.5469 21.8416C48.7599 22.2635 48.8665 22.7578 48.8665 23.3246C48.8665 24.0916 48.6705 24.767 48.2784 25.3509C47.8864 25.9304 47.3196 26.3842 46.5781 26.7124C45.8409 27.0362 44.9482 27.1982 43.8999 27.1982C42.8814 27.1982 41.9972 27.0405 41.2472 26.7251C40.5014 26.4098 39.9176 25.9496 39.4957 25.3445C39.0781 24.7393 38.8523 24.0021 38.8182 23.1328H41.1513C41.1854 23.5888 41.326 23.968 41.5732 24.2706C41.8203 24.5732 42.142 24.799 42.5384 24.9482C42.9389 25.0973 43.3864 25.1719 43.8807 25.1719C44.3963 25.1719 44.848 25.0952 45.2358 24.9418C45.6278 24.7841 45.9347 24.5668 46.1562 24.2898C46.3778 24.0085 46.4908 23.6804 46.495 23.3054C46.4908 22.9645 46.3906 22.6832 46.1946 22.4616C45.9986 22.2358 45.7237 22.0483 45.37 21.8991C45.0206 21.7457 44.6115 21.6094 44.1428 21.4901L42.6534 21.1065C41.5753 20.8295 40.723 20.4098 40.0966 19.8473C39.4744 19.2805 39.1634 18.5284 39.1634 17.5909C39.1634 16.8196 39.3722 16.1442 39.7898 15.5646C40.2116 14.9851 40.7848 14.5355 41.5092 14.2159C42.2337 13.892 43.054 13.7301 43.9702 13.7301C44.8991 13.7301 45.7131 13.892 46.4119 14.2159C47.1151 14.5355 47.6669 14.9808 48.0675 15.5518C48.468 16.1186 48.6747 16.7706 48.6875 17.5078H46.4055ZM51.7308 27H49.1996L53.8082 13.9091H56.7358L61.3508 27H58.8196L55.3231 16.5938H55.2209L51.7308 27ZM51.8139 21.8672H58.7173V23.772H51.8139V21.8672ZM64.0362 27H61.505L66.1136 13.9091H69.0412L73.6562 27H71.125L67.6285 16.5938H67.5263L64.0362 27ZM64.1193 21.8672H71.0227V23.772H64.1193V21.8672ZM89.6106 18.326H87.22C87.1518 17.9339 87.0261 17.5866 86.8428 17.2841C86.6596 16.9773 86.4316 16.7173 86.1589 16.5043C85.8862 16.2912 85.5751 16.1314 85.2256 16.0249C84.8805 15.9141 84.5076 15.8587 84.107 15.8587C83.3954 15.8587 82.7647 16.0376 82.215 16.3956C81.6653 16.7493 81.2349 17.2692 80.9238 17.9553C80.6127 18.6371 80.4572 19.4702 80.4572 20.4545C80.4572 21.456 80.6127 22.2997 80.9238 22.9858C81.2391 23.6676 81.6695 24.1832 82.215 24.5327C82.7647 24.8778 83.3933 25.0504 84.1006 25.0504C84.4927 25.0504 84.8592 24.9993 85.2001 24.897C85.5452 24.7905 85.8542 24.6349 86.1269 24.4304C86.4039 24.2259 86.6362 23.9744 86.8237 23.6761C87.0154 23.3778 87.1475 23.0369 87.22 22.6534L89.6106 22.6662C89.5211 23.2884 89.3272 23.8722 89.0289 24.4176C88.7349 24.9631 88.3492 25.4446 87.872 25.8622C87.3947 26.2756 86.8364 26.5994 86.1972 26.8338C85.558 27.0639 84.8485 27.179 84.0687 27.179C82.9181 27.179 81.8911 26.9126 80.9877 26.38C80.0843 25.8473 79.3727 25.0781 78.8528 24.0724C78.3329 23.0668 78.0729 21.8608 78.0729 20.4545C78.0729 19.044 78.335 17.8381 78.8592 16.8366C79.3833 15.831 80.0971 15.0618 81.0005 14.5291C81.9039 13.9964 82.9266 13.7301 84.0687 13.7301C84.7974 13.7301 85.4749 13.8324 86.1014 14.0369C86.7278 14.2415 87.286 14.5419 87.7761 14.9382C88.2661 15.3303 88.6688 15.8118 88.9842 16.3828C89.3038 16.9496 89.5126 17.5973 89.6106 18.326ZM95.2427 27.1918C94.2839 27.1918 93.4529 26.9808 92.7498 26.5589C92.0467 26.1371 91.5012 25.5469 91.1134 24.7884C90.7299 24.0298 90.5381 23.1435 90.5381 22.1293C90.5381 21.1151 90.7299 20.2266 91.1134 19.4638C91.5012 18.701 92.0467 18.1087 92.7498 17.6868C93.4529 17.2649 94.2839 17.054 95.2427 17.054C96.2015 17.054 97.0325 17.2649 97.7356 17.6868C98.4387 18.1087 98.982 18.701 99.3656 19.4638C99.7533 20.2266 99.9472 21.1151 99.9472 22.1293C99.9472 23.1435 99.7533 24.0298 99.3656 24.7884C98.982 25.5469 98.4387 26.1371 97.7356 26.5589C97.0325 26.9808 96.2015 27.1918 95.2427 27.1918ZM95.2555 25.3381C95.7754 25.3381 96.21 25.1953 96.5594 24.9098C96.9089 24.62 97.1688 24.2322 97.3393 23.7464C97.514 23.2607 97.6014 22.7195 97.6014 22.1229C97.6014 21.522 97.514 20.9787 97.3393 20.4929C97.1688 20.0028 96.9089 19.6129 96.5594 19.3232C96.21 19.0334 95.7754 18.8885 95.2555 18.8885C94.7228 18.8885 94.2796 19.0334 93.9259 19.3232C93.5765 19.6129 93.3144 20.0028 93.1397 20.4929C92.9692 20.9787 92.884 21.522 92.884 22.1229C92.884 22.7195 92.9692 23.2607 93.1397 23.7464C93.3144 24.2322 93.5765 24.62 93.9259 24.9098C94.2796 25.1953 94.7228 25.3381 95.2555 25.3381ZM103.505 21.2472V27H101.191V17.1818H103.403V18.8501H103.518C103.744 18.3004 104.104 17.8636 104.598 17.5398C105.097 17.2159 105.712 17.054 106.445 17.054C107.123 17.054 107.713 17.1989 108.216 17.4886C108.723 17.7784 109.115 18.1982 109.392 18.7479C109.673 19.2976 109.812 19.9645 109.808 20.7486V27H107.494V21.1065C107.494 20.4503 107.323 19.9368 106.982 19.5661C106.646 19.1953 106.179 19.0099 105.583 19.0099C105.178 19.0099 104.818 19.0994 104.502 19.2784C104.191 19.4531 103.946 19.7067 103.767 20.0391C103.592 20.3714 103.505 20.7741 103.505 21.2472ZM119.2 19.777L117.091 20.0071C117.031 19.794 116.926 19.5938 116.777 19.4062C116.632 19.2188 116.436 19.0675 116.189 18.9524C115.942 18.8374 115.64 18.7798 115.282 18.7798C114.8 18.7798 114.395 18.8842 114.067 19.093C113.743 19.3018 113.583 19.5724 113.588 19.9048C113.583 20.1903 113.688 20.4226 113.901 20.6016C114.118 20.7805 114.476 20.9276 114.975 21.0426L116.649 21.4006C117.578 21.6009 118.269 21.9183 118.72 22.353C119.176 22.7876 119.407 23.3565 119.411 24.0597C119.407 24.6776 119.225 25.223 118.867 25.696C118.514 26.1648 118.022 26.5312 117.391 26.7955C116.76 27.0597 116.036 27.1918 115.218 27.1918C114.016 27.1918 113.049 26.9403 112.316 26.4375C111.583 25.9304 111.146 25.2251 111.005 24.3217L113.262 24.1044C113.364 24.5476 113.581 24.8821 113.914 25.108C114.246 25.3338 114.679 25.4467 115.211 25.4467C115.761 25.4467 116.202 25.3338 116.534 25.108C116.871 24.8821 117.039 24.603 117.039 24.2706C117.039 23.9893 116.931 23.7571 116.713 23.5739C116.5 23.3906 116.168 23.25 115.716 23.152L114.041 22.8004C113.1 22.6044 112.403 22.2741 111.951 21.8097C111.5 21.3409 111.276 20.7486 111.28 20.0327C111.276 19.4276 111.44 18.9034 111.772 18.4602C112.109 18.0128 112.576 17.6676 113.172 17.4247C113.773 17.1776 114.466 17.054 115.25 17.054C116.4 17.054 117.306 17.299 117.966 17.7891C118.631 18.2791 119.042 18.9418 119.2 19.777ZM126.857 22.8707V17.1818H129.171V27H126.927V25.255H126.825C126.603 25.8047 126.239 26.2543 125.732 26.6037C125.229 26.9531 124.609 27.1278 123.872 27.1278C123.228 27.1278 122.659 26.9851 122.165 26.6996C121.675 26.4098 121.291 25.9901 121.014 25.4403C120.737 24.8864 120.599 24.2173 120.599 23.4332V17.1818H122.913V23.0753C122.913 23.6974 123.083 24.1918 123.424 24.5582C123.765 24.9247 124.212 25.108 124.766 25.108C125.107 25.108 125.438 25.0249 125.757 24.8587C126.077 24.6925 126.339 24.4453 126.543 24.1172C126.752 23.7848 126.857 23.3693 126.857 22.8707ZM133.144 13.9091V27H130.83V13.9091H133.144ZM139.706 17.1818V18.9716H134.062V17.1818H139.706ZM135.455 14.8295H137.769V24.0469C137.769 24.358 137.816 24.5966 137.91 24.7628C138.008 24.9247 138.136 25.0355 138.293 25.0952C138.451 25.1548 138.626 25.1847 138.818 25.1847C138.962 25.1847 139.095 25.174 139.214 25.1527C139.337 25.1314 139.431 25.1122 139.495 25.0952L139.885 26.9041C139.761 26.9467 139.585 26.9936 139.355 27.0447C139.129 27.0959 138.852 27.1257 138.524 27.1342C137.944 27.1513 137.422 27.0639 136.957 26.8722C136.493 26.6761 136.124 26.3736 135.852 25.9645C135.583 25.5554 135.451 25.044 135.455 24.4304V14.8295ZM143.747 27.1982C143.124 27.1982 142.564 27.0874 142.065 26.8658C141.571 26.6399 141.179 26.3075 140.889 25.8686C140.604 25.4297 140.461 24.8885 140.461 24.245C140.461 23.6911 140.563 23.233 140.768 22.8707C140.972 22.5085 141.252 22.2188 141.605 22.0014C141.959 21.7841 142.357 21.62 142.801 21.5092C143.248 21.3942 143.71 21.3111 144.188 21.2599C144.763 21.2003 145.23 21.147 145.587 21.1001C145.945 21.049 146.205 20.9723 146.367 20.87C146.533 20.7635 146.617 20.5994 146.617 20.3778V20.3395C146.617 19.858 146.474 19.4851 146.188 19.2209C145.903 18.9567 145.492 18.8246 144.955 18.8246C144.388 18.8246 143.938 18.9482 143.606 19.1953C143.278 19.4425 143.056 19.7344 142.941 20.071L140.781 19.7642C140.951 19.1676 141.232 18.669 141.624 18.2685C142.016 17.8636 142.496 17.5611 143.063 17.3608C143.629 17.1562 144.256 17.054 144.942 17.054C145.415 17.054 145.886 17.1094 146.355 17.2202C146.823 17.331 147.252 17.5142 147.639 17.7699C148.027 18.0213 148.338 18.3643 148.573 18.799C148.811 19.2337 148.93 19.777 148.93 20.429V27H146.706V25.6513H146.629C146.489 25.924 146.291 26.1797 146.035 26.4183C145.783 26.6527 145.466 26.8423 145.082 26.9872C144.703 27.1278 144.258 27.1982 143.747 27.1982ZM144.347 25.4979C144.812 25.4979 145.215 25.4062 145.555 25.223C145.896 25.0355 146.158 24.7884 146.342 24.4815C146.529 24.1747 146.623 23.8402 146.623 23.478V22.321C146.551 22.3807 146.427 22.4361 146.252 22.4872C146.082 22.5384 145.89 22.5831 145.677 22.6214C145.464 22.6598 145.253 22.6939 145.044 22.7237C144.835 22.7536 144.654 22.7791 144.501 22.8004C144.156 22.8473 143.847 22.924 143.574 23.0305C143.301 23.1371 143.086 23.2862 142.928 23.478C142.771 23.6655 142.692 23.9084 142.692 24.2067C142.692 24.6328 142.847 24.9545 143.158 25.1719C143.47 25.3892 143.866 25.4979 144.347 25.4979ZM152.851 21.2472V27H150.537V17.1818H152.749V18.8501H152.864C153.09 18.3004 153.45 17.8636 153.944 17.5398C154.443 17.2159 155.059 17.054 155.791 17.054C156.469 17.054 157.059 17.1989 157.562 17.4886C158.069 17.7784 158.461 18.1982 158.738 18.7479C159.019 19.2976 159.158 19.9645 159.154 20.7486V27H156.84V21.1065C156.84 20.4503 156.669 19.9368 156.328 19.5661C155.992 19.1953 155.525 19.0099 154.929 19.0099C154.524 19.0099 154.164 19.0994 153.848 19.2784C153.537 19.4531 153.292 19.7067 153.113 20.0391C152.938 20.3714 152.851 20.7741 152.851 21.2472ZM165.069 27.1918C164.089 27.1918 163.247 26.9766 162.544 26.5462C161.845 26.1158 161.306 25.5213 160.927 24.7628C160.552 24 160.364 23.1222 160.364 22.1293C160.364 21.1321 160.556 20.2521 160.939 19.4893C161.323 18.7223 161.864 18.1257 162.563 17.6996C163.266 17.2692 164.097 17.054 165.056 17.054C165.853 17.054 166.558 17.201 167.172 17.495C167.79 17.7848 168.282 18.196 168.648 18.7287C169.015 19.2571 169.223 19.875 169.275 20.5824H167.063C166.973 20.1094 166.76 19.7152 166.424 19.3999C166.091 19.0803 165.646 18.9205 165.088 18.9205C164.615 18.9205 164.199 19.0483 163.841 19.304C163.483 19.5554 163.204 19.9176 163.004 20.3906C162.808 20.8636 162.71 21.4304 162.71 22.0909C162.71 22.7599 162.808 23.3352 163.004 23.8168C163.2 24.294 163.475 24.6626 163.829 24.9226C164.187 25.1783 164.606 25.3061 165.088 25.3061C165.429 25.3061 165.733 25.2422 166.002 25.1143C166.275 24.9822 166.503 24.7926 166.686 24.5455C166.869 24.2983 166.995 23.9979 167.063 23.6442H169.275C169.219 24.3388 169.015 24.9545 168.661 25.4915C168.307 26.0241 167.826 26.4418 167.216 26.7443C166.607 27.0426 165.891 27.1918 165.069 27.1918ZM171.893 30.6818C171.577 30.6818 171.286 30.6563 171.017 30.6051C170.753 30.5582 170.542 30.5028 170.384 30.4389L170.921 28.6364C171.258 28.7344 171.558 28.7813 171.823 28.777C172.087 28.7727 172.319 28.6896 172.519 28.5277C172.724 28.37 172.896 28.1058 173.037 27.7351L173.235 27.2045L169.675 17.1818H172.129L174.392 24.5966H174.494L176.764 17.1818H179.225L175.293 28.1889C175.11 28.7088 174.867 29.1541 174.565 29.5249C174.262 29.8999 173.891 30.1854 173.452 30.3814C173.018 30.5817 172.498 30.6818 171.893 30.6818Z" fill="black"/>
<rect x="200" y="8" width="2" height="25" rx="1" fill="black"/>
</svg>
