<svg width="38" height="14" viewBox="0 0 38 14" fill="none" xmlns="http://www.w3.org/2000/svg">
<path d="M3.04261 0.909091L6.44957 11.2131H6.58381L9.98438 0.909091H12.5923L7.97727 14H5.04972L0.441051 0.909091H3.04261ZM15.968 0.909091V14H13.5966V0.909091H15.968ZM17.816 14V0.909091H22.8274C23.7734 0.909091 24.5596 1.05824 25.1861 1.35653C25.8167 1.65057 26.2876 2.05327 26.5987 2.56463C26.914 3.07599 27.0717 3.65554 27.0717 4.30327C27.0717 4.83594 26.9694 5.2919 26.7649 5.67116C26.5604 6.04616 26.2855 6.35085 25.9403 6.58523C25.5952 6.8196 25.2095 6.98793 24.7834 7.0902V7.21804C25.2479 7.24361 25.6932 7.38636 26.1193 7.64631C26.5497 7.90199 26.9013 8.2642 27.174 8.73295C27.4467 9.2017 27.5831 9.76847 27.5831 10.4332C27.5831 11.1108 27.419 11.7202 27.0909 12.2614C26.7628 12.7983 26.2685 13.2223 25.6079 13.5334C24.9474 13.8445 24.1165 14 23.115 14H17.816ZM20.1875 12.0185H22.7379C23.5987 12.0185 24.2187 11.8544 24.598 11.5263C24.9815 11.1939 25.1733 10.7678 25.1733 10.2479C25.1733 9.86009 25.0774 9.51065 24.8856 9.19957C24.6939 8.88423 24.4212 8.63707 24.0675 8.4581C23.7138 8.27486 23.2919 8.18324 22.8018 8.18324H20.1875V12.0185ZM20.1875 6.47656H22.5334C22.9425 6.47656 23.3111 6.40199 23.6392 6.25284C23.9673 6.09943 24.2251 5.88423 24.4126 5.60724C24.6044 5.32599 24.7003 4.99361 24.7003 4.61009C24.7003 4.10298 24.5213 3.68537 24.1633 3.35724C23.8096 3.02912 23.2834 2.86506 22.5845 2.86506H20.1875V6.47656ZM28.9261 14V0.909091H37.4403V2.89702H31.2976V6.45099H36.9993V8.43892H31.2976V12.0121H37.4915V14H28.9261Z" fill="white"/>
</svg>
